<?xml version="1.0"?>
<svg width="640" height="480" xmlns="http://www.w3.org/2000/svg" xmlns:svg="http://www.w3.org/2000/svg">
 <!-- Created with SVG-edit - https://github.com/SVG-Edit/svgedit-->

 <g class="layer">
  <title>Layer 1</title>
  <path d="m418.54,100.2c119.94,129.94 69.49,271.78 69.32,271.53c-0.17,-0.25 -189.26,25.95 -203.54,25c-14.28,-0.95 -14.28,-0.95 -14.45,-1.2" fill="none" id="svg_56" stroke="#000000" stroke-width="4" transform="rotate(-1.82049 384.205 248.475)"/>
  <path d="m230.37,110.6c13.78,16.78 19.26,-5.9 11.56,-11.03c-7.7,-5.13 -18.99,-4.11 -20.53,11.29c-1.54,15.4 14.37,21.05 27.21,16.94c12.83,-4.11 16.94,-17.45 12.32,-29.26c-4.62,-11.81 -15.14,-19.51 -30.22,-17.45c-15.08,2.05 -27.01,12.83 -23.16,33.37c3.85,20.53 63.66,93.81 80.4,154.71c16.75,60.9 23.81,94.26 13.54,111.2c-10.27,16.94 -16.17,15.4 -22.39,18.03c-6.22,2.63 -26.37,-1.6 -29.97,-22.65c-3.59,-21.05 21.05,-25.15 29.26,-20.02c8.21,5.13 6.21,27.8 -2.13,28.15c-8.34,0.35 -12.82,-5.3 -6.6,-13.95" fill="none" fill-opacity="0" id="svg_6" stroke="#000000" stroke-width="5" transform="matrix(1 0 0 1 0 0)"/>
  <line fill="none" fill-opacity="0" id="svg_9" stroke="#000000" stroke-width="5" x1="269.31" x2="283" y1="371.47" y2="366.51"/>
  <line fill="none" fill-opacity="0" id="svg_11" stroke="#000000" stroke-width="5" transform="matrix(1 0 0 1 0 0)" x1="224.48" x2="392.34" y1="82.12" y2="57.99"/>
  <line fill="none" fill-opacity="0" id="svg_12" stroke="#000000" stroke-width="5" x1="230.18" x2="245.18" y1="113.4" y2="104.83"/>
  <path d="m245.18,129.68c1.25,0.12 1.86,0.3 2.55,-0.15c0.66,-0.43 1.47,-0.46 2.33,-0.71c0.78,-0.22 1.46,-0.62 2.2,-0.84c0.85,-0.26 1.72,-0.23 2.48,-0.44c0.87,-0.23 1.79,0.23 2.65,-0.01c0.78,-0.22 1.6,-0.35 2.47,-0.57c0.82,-0.21 1.7,-0.28 2.6,-0.28c0.86,0 1.76,0 2.65,0c0.9,0 1.69,0.32 2.57,0.43c0.86,0.11 1.65,0.35 2.58,0.43c0.92,0.07 1.77,0 2.71,0c0.82,0 1.78,0 2.59,0c0.96,0 1.79,0.05 2.57,-0.34c0.87,-0.45 1.59,-0.78 2.41,-1.17c0.78,-0.37 1.21,-1.24 1.88,-1.83c0.61,-0.54 1.3,-1.13 1.85,-1.85c0.54,-0.71 1.23,-1.22 1.78,-2c0.47,-0.66 1.11,-1.25 1.71,-1.96c0.54,-0.65 0.99,-1.43 1.69,-2.11c0.59,-0.58 1.39,-1.04 2.19,-1.34c0.83,-0.31 1.76,-0.25 2.62,-0.25c0.81,0 1.75,0 2.6,0c0.86,0 1.89,0 2.73,0c0.87,0 1.72,0 2.67,0c0.86,0 1.73,-0.12 2.66,0.02c0.88,0.14 1.71,0.4 2.57,0.4c0.86,0 1.77,0.09 2.68,0c0.93,-0.09 1.79,-0.27 2.61,-0.45c0.83,-0.18 1.56,-0.7 2.42,-1.13c0.77,-0.39 1.61,-0.79 2.39,-1.02c0.87,-0.26 1.7,-0.62 2.58,-0.89c0.89,-0.28 1.54,-0.7 2.31,-1.09c0.86,-0.43 1.65,-0.77 2.47,-1.24c0.76,-0.44 1.63,-0.6 2.5,-0.6c0.93,0 1.75,0.16 2.58,0.43c0.84,0.27 1.48,0.79 2.31,1.28c0.66,0.38 1.6,0.76 2.48,0.86c0.85,0.1 1.7,0.34 2.57,0.43c0.94,0.1 1.78,0.12 2.69,0c0.87,-0.11 1.71,-0.43 2.57,-0.64c0.86,-0.21 1.68,-0.21 2.62,-0.21c0.85,0 1.72,0 2.57,0c1.03,0 1.88,0 2.73,0c0.87,0 1.79,0 2.72,0c0.83,0 1.68,0.12 2.6,-0.02c0.88,-0.14 1.66,-0.35 2.61,-0.63c0.8,-0.23 1.59,-0.68 2.44,-1.11c0.77,-0.39 1.56,-0.81 2.23,-1.41c0.61,-0.56 1.44,-0.85 2.27,-1.14c0.83,-0.29 1.63,-0.4 2.55,-0.4c0.91,0 1.75,0 2.72,0c0.86,0 1.77,0.1 2.58,-0.01c0.94,-0.12 1.78,-0.42 2.63,-0.42c0.81,0 1.74,0 2.6,0c0.99,0 1.91,0 2.83,0c0.76,0 1.61,0 2.63,0c0.87,0 1.79,0 2.63,0c0.95,0 1.77,0 2.61,0c0.94,0 1.79,0 2.68,0c0.88,0 1.85,0 2.72,0c0.86,0 1.71,0 2.66,0c0.86,0 1.7,-0.31 2.56,-0.42c1,-0.12 1.74,-0.05 2.66,-0.26c0.86,-0.19 1.75,-0.3 2.63,-0.56c0.78,-0.23 1.76,-0.38 2.45,-0.5c0.93,-0.16 1.77,-0.44 2.64,-0.65c0.85,-0.21 1.67,-0.5 2.53,-0.99c0.71,-0.4 1.46,-0.89 2.24,-1.38c0.71,-0.46 1.45,-0.81 2.17,-1.4c0.66,-0.54 1.48,-0.95 2.02,-1.7c0.53,-0.73 1.22,-1.25 1.8,-1.88c0.59,-0.64 0.92,-1.47 1.46,-2.17c0.51,-0.66 1.08,-1.46 1.57,-2.16c0.51,-0.73 0.82,-1.51 1.3,-2.38c0.42,-0.74 0.8,-1.49 1.04,-2.43c0.22,-0.84 0.33,-1.72 0.51,-2.57c0.18,-0.84 0.37,-1.71 0.42,-2.57c0.05,-0.9 0.42,-1.71 0.43,-2.64c0,-0.83 -0.03,-1.72 -0.25,-2.57c-0.21,-0.85 -0.34,-1.74 -0.68,-2.57c-0.32,-0.77 -0.28,-1.65 -0.36,-2.57c-0.08,-0.9 -0.34,-1.69 -0.86,-2.5c-0.44,-0.69 -0.79,-1.54 -1.33,-2.19c-0.58,-0.7 -1.12,-1.39 -1.67,-2.1c-0.52,-0.67 -1.2,-1.2 -1.71,-1.93c-0.51,-0.73 -1.11,-1.33 -1.69,-2.06c-0.52,-0.66 -1.34,-0.93 -2.09,-1.34c-0.73,-0.4 -1.46,-0.96 -2.22,-1.46c-0.67,-0.44 -1.54,-0.75 -2.35,-1.05c-0.85,-0.31 -1.65,-0.66 -2.49,-0.89c-0.83,-0.23 -1.56,-0.6 -2.37,-0.71c-0.92,-0.12 -1.79,0.04 -2.65,0c-0.9,-0.05 -1.71,-0.42 -2.61,-0.43c-0.9,0 -1.71,-0.27 -2.57,-0.43c-0.89,-0.16 -1.76,0 -2.66,0c-0.9,0 -1.72,0.1 -2.48,0.31c-0.84,0.23 -1.69,0.24 -2.41,0.59c-0.71,0.34 -1.36,0.76 -2.02,1.24c-0.69,0.5 -1.14,1.21 -1.53,1.98l0,0.9" fill="none" fill-opacity="0" id="svg_13" stroke="#000000" stroke-width="5"/>
  <path d="m296.7,218.24c0.47,-1.19 0.48,-2.09 0.48,-3c0,-0.9 -0.06,-1.74 -0.31,-2.57c-0.24,-0.83 -0.58,-1.5 -0.88,-2.28c-0.34,-0.89 -0.97,-1.59 -1.18,-2.38c-0.23,-0.87 -0.27,-1.55 -0.5,-2.43c-0.23,-0.89 -0.5,-1.71 -0.46,-2.57c0.04,-0.88 0.95,-0.95 1.81,-0.95c0.9,0 1.81,0.09 2.71,0c0.87,-0.08 1.67,-0.48 2.52,-0.48c0.9,0 1.76,0 2.67,0c0.9,0 1.7,-0.28 2.52,-0.47c0.88,-0.2 1.86,0.28 2.71,-0.01c0.74,-0.25 1.51,-0.48 2.19,-0.95c0.65,-0.44 1.47,-0.62 2.17,-0.97c0.74,-0.37 1.61,-0.5 2.09,-1.14c0.53,-0.71 -0.06,-1.91 -0.79,-2.17c-0.85,-0.3 -1.71,0.04 -2.07,0.78c-0.37,0.74 -0.48,1.49 -0.72,2.36c-0.24,0.85 -0.2,1.76 -0.2,2.62c0,0.9 0,1.76 0,2.67c0,0.9 0.38,1.58 0.48,2.43c0.1,0.87 0.3,1.6 0.52,2.38c0.25,0.88 0.68,1.47 0.95,2.34c0.24,0.79 0.94,1.32 1.18,2.05c0.27,0.79 0.71,1.57 1.15,2.23c0.45,0.67 0.67,1.47 0.95,2.19c0.3,0.77 0.7,1.36 0.99,2.14c0.32,0.85 1.05,1.36 1.35,2.13c0.31,0.82 0.39,1.67 0.75,2.48c0.34,0.76 0.82,1.41 1.19,2.14c0.37,0.72 0.52,1.59 0.95,2.24c0.46,0.7 0.56,1.56 0.95,2.33c0.35,0.7 0.36,1.53 0.48,2.43c0.12,0.88 0.48,1.67 0.48,2.57c0,0.9 0,1.76 0,2.67c0,0.86 0.2,1.85 -0.24,2.52c-0.48,0.74 -1.15,1.22 -1.75,1.82c-0.57,0.58 -1.14,1.25 -1.81,1.71c-0.64,0.44 -1.63,0.27 -2.53,0.27c-0.86,0 -1.76,0 -2.62,0c-0.9,0 -1.83,0.02 -2.42,-0.58c-0.59,-0.61 -1.11,-1.27 -1.72,-1.8c-0.63,-0.56 -1.04,-1.23 -1.46,-1.92c-0.43,-0.7 -0.2,-1.65 -0.2,-2.56c0,-0.9 -0.16,-1.98 0.52,-2.53c0.69,-0.56 1.53,-0.61 2.44,-0.61c0.86,0 1.5,0.45 2.15,0.99l0.58,0.61l0.23,0.77" fill="none" id="svg_16" stroke="#000000" stroke-width="5"/>
  <path d="m318.59,219.19c1.29,0 2.21,-0.03 2.86,-0.48c0.65,-0.45 1.59,-0.4 2.35,-0.64c0.76,-0.24 1.56,-0.59 2.4,-0.78c0.85,-0.2 1.57,-0.2 2.43,-0.48c0.75,-0.24 1.57,-0.19 2.43,-0.48c0.74,-0.25 1.4,-0.67 2.15,-0.99c0.76,-0.33 1.28,-0.97 1.96,-1.47c0.61,-0.45 1.38,-0.8 1.98,-1.43c0.57,-0.6 1.06,-1.29 1.67,-1.82c0.63,-0.56 0.92,-1.33 1.16,-2.07c0.28,-0.83 0.03,-1.78 0.03,-2.69c0,-0.86 0,-1.76 0,-2.62c0,-0.9 0.04,-1.81 0,-2.71c-0.04,-0.86 -0.2,-1.67 -0.49,-2.51c-0.25,-0.74 -0.66,-1.46 -0.94,-2.2c-0.32,-0.82 -0.28,-1.66 -0.71,-2.33c-0.46,-0.71 -1.1,-1.22 -1.71,-1.85c-0.57,-0.59 -1.35,-0.89 -2.14,-1.01c-0.89,-0.14 -1.98,-0.3 -2.56,0.25c-0.56,0.53 -0.49,1.51 -0.49,2.42c0,0.9 -0.05,1.77 0.2,2.56c0.25,0.77 0.52,1.47 0.75,2.3c0.22,0.77 0.69,1.46 0.93,2.21c0.28,0.84 0.23,1.68 0.48,2.42c0.28,0.85 -0.24,1.84 0.01,2.66c0.24,0.78 0.48,1.57 0.48,2.43c0,0.9 0.47,1.54 0.48,2.43c0.01,0.9 0.26,1.56 0.48,2.43c0.22,0.88 0.66,1.61 0.95,2.33c0.3,0.77 0.51,1.49 0.95,2.14c0.47,0.69 0.35,1.6 0.61,2.43c0.23,0.75 0.8,1.29 1.21,2.02c0.44,0.77 0.65,1.44 1.06,2.13c0.45,0.75 0.97,1.28 1.44,1.94c0.48,0.68 0.95,1.32 1.19,2.05c0.25,0.78 0.47,1.53 0.76,2.37c0.28,0.81 0.43,1.61 0.67,2.39c0.24,0.79 0.2,1.65 0.2,2.56c0,0.9 0.48,1.56 0.95,2.24c0.45,0.65 1.04,1.18 1.82,1.46c0.76,0.27 1.34,0.71 2.22,0.87c0.76,0.14 1.52,0.48 2.43,0.48c0.89,0 1.56,-0.24 2.4,-0.5c0.79,-0.25 1.43,-0.7 2.07,-1.16c0.63,-0.46 1,-1.19 1.43,-1.76c0.47,-0.62 1.03,-1.25 1.67,-1.81c0.63,-0.56 0.91,-1.33 1.19,-2.05c0.3,-0.77 0.48,-1.52 0.48,-2.43c0,-0.9 0,-1.81 0,-2.67c0,-0.86 0,-1.76 0,-2.67c0,-0.9 0,-1.81 0,-2.67c0,-0.9 -0.36,-1.55 -0.48,-2.43c-0.11,-0.82 -0.58,-1.5 -0.95,-2.24c-0.37,-0.72 0.03,-2.1 -0.71,-2.38c-0.26,-0.1 -0.05,0.94 0.24,1.67c0.3,0.74 0.27,1.55 0.48,2.43c0.17,0.76 0.58,1.47 0.91,2.23c0.32,0.75 0.55,1.5 0.99,2.15c0.45,0.66 0.63,1.5 0.96,2.19c0.39,0.82 0.74,1.6 1.29,2.23c0.55,0.64 0.8,1.44 1.48,1.94c0.61,0.45 1.26,0.91 2.01,1.18c0.83,0.3 1.52,0.55 2.33,0.81c0.72,0.23 1.64,0.59 2.5,0.31c0.74,-0.25 1.53,-0.47 2.29,-0.71c0.79,-0.26 1.4,-0.75 2.07,-1.16c0.76,-0.47 1.43,-0.95 2.04,-1.48l0.17,-0.83" fill="none" id="svg_24" stroke="#000000" stroke-width="5" transform="matrix(1 0 0 1 0 0)"/>
  <ellipse cx="356.19" cy="206.58" fill="none" id="svg_25" rx="2.86" ry="3.57" stroke="#000000" stroke-width="4"/>
  <path d="m374.75,232.52c0.68,-0.94 1.33,-1.44 1.88,-2.07c0.53,-0.61 0.97,-1.28 1.44,-1.94c0.52,-0.74 0.67,-1.56 1.2,-2.17c0.57,-0.65 0.91,-1.44 1.19,-2.19c0.27,-0.71 0.75,-1.46 0.95,-2.19c0.24,-0.87 0,-1.81 0,-2.67c0,-0.86 0.34,-1.68 0.48,-2.57c0.14,-0.89 -0.23,-1.74 0,-2.62c0.21,-0.78 0.29,-1.6 0.52,-2.43c0.24,-0.88 0.15,-1.71 0.44,-2.57c0.25,-0.74 0.71,-1.45 0.95,-2.19c0.27,-0.81 0,-1.76 0,-2.66c0,-0.9 0,-1.81 0,-2.67c0,-0.86 0,-1.76 0,-2.67c0,-0.9 0,-1.81 0,-2.67c0,-0.9 -0.2,-1.71 -0.45,-2.45c-0.28,-0.83 0.15,-1.82 -0.11,-2.69c-0.23,-0.78 -0.44,-1.59 -0.87,-2.24c-0.46,-0.7 -0.5,-1.61 -0.97,-2.31c-0.48,-0.73 -0.92,-1.46 -1.52,-2.05c-0.58,-0.57 -1.21,-1.03 -1.93,-1.45c-0.71,-0.4 -1.63,-0.52 -2.53,-0.52c-0.89,0 -1.57,0.53 -2.08,1.15c-0.52,0.63 -0.94,1.33 -0.96,2.22c-0.03,0.81 -0.46,1.52 -0.48,2.43c-0.02,0.86 0,1.71 0,2.62c0,0.9 0,1.81 0,2.67c0,0.9 0.41,1.66 0.48,2.57c0.06,0.85 -0.28,1.81 0,2.66c0.25,0.74 0.19,1.57 0.48,2.42c0.25,0.74 0.2,1.57 0.48,2.42c0.25,0.74 0.43,1.57 0.93,2.34c0.43,0.66 0.69,1.42 0.96,2.19c0.29,0.83 0.57,1.49 0.82,2.28c0.26,0.83 0.73,1.61 1.01,2.48c0.25,0.78 0.43,1.51 0.69,2.34c0.24,0.75 0.65,1.48 0.82,2.32c0.16,0.83 0.7,1.55 0.95,2.33c0.26,0.81 0.05,1.76 0.48,2.57c0.37,0.69 0.62,1.42 0.98,2.16c0.36,0.74 0.81,1.36 1.4,1.99c0.57,0.61 1.31,0.84 2.19,1.03c0.74,0.16 1.46,0.75 2.19,0.95c0.87,0.24 1.68,0.28 2.43,0.48c0.88,0.22 1.81,0 2.62,0c0.9,0 1.82,0.16 2.71,0c0.76,-0.14 1.57,-0.35 2.38,-0.71c0.76,-0.33 1.46,-0.72 2.14,-1.19c0.65,-0.44 0.99,-1.19 1.56,-1.86c0.53,-0.62 1.22,-0.89 1.69,-1.55c0.49,-0.69 0.98,-1.29 1.45,-1.93c0.48,-0.66 0.76,-1.39 1.01,-2.13c0.29,-0.86 -0.07,-1.82 0.17,-2.66c0.24,-0.83 0.31,-1.67 0.31,-2.57c0,-0.9 0,-1.81 0,-2.67c0,-0.9 -0.21,-1.7 -0.46,-2.44c-0.28,-0.84 -0.1,-1.82 -0.49,-2.55c-0.37,-0.7 -0.58,-1.51 -0.94,-2.21c-0.36,-0.7 -0.57,-1.46 -1.1,-2.13c-0.51,-0.64 -1.63,-0.52 -2.53,-0.52c-0.89,0 -1.67,0.46 -2.08,1.16c-0.4,0.68 -0.49,1.51 -0.49,2.41c0,0.9 0,1.81 0,2.71c0,0.86 0.38,1.51 0.48,2.38c0.1,0.84 0.69,1.45 0.95,2.19c0.29,0.83 0.32,1.6 0.58,2.42c0.24,0.73 0.56,1.48 0.85,2.2c0.3,0.74 0.66,1.46 0.95,2.24c0.29,0.78 0.44,1.55 0.99,2.15c0.57,0.62 1.24,1.09 1.84,1.73c0.55,0.6 1.19,0.97 1.92,1.46c0.64,0.43 1.35,0.74 2.25,0.75c0.89,0.01 1.47,0.68 2.22,0.92c0.83,0.28 1.73,-0.06 2.42,-0.43c0.71,-0.39 1.33,-0.91 1.93,-1.45c0.63,-0.56 0.86,-1.38 1.46,-1.92c0.63,-0.56 0.52,-1.5 0.78,-2.31c0.24,-0.73 0.65,-1.47 0.84,-2.29c0.2,-0.88 0,-1.81 0,-2.71c0,-0.9 -0.27,-1.8 0,-2.67c0.24,-0.75 0.48,-1.52 0.48,-2.43c0,-0.9 0,-1.76 0,-2.67c0,-0.86 -0.39,-1.58 -0.48,-2.43c-0.09,-0.85 -0.2,-1.69 -0.44,-2.57c-0.24,-0.87 -0.43,-1.65 -0.52,-2.52c-0.09,-0.89 -0.47,-1.53 -0.48,-2.43c-0.01,-0.9 -0.31,-1.7 -0.61,-2.53c-0.25,-0.71 -0.45,-1.54 -0.68,-2.32c-0.25,-0.83 -0.47,-1.68 -0.61,-2.57c-0.14,-0.89 -0.39,-1.65 -0.48,-2.52c-0.09,-0.9 -0.36,-1.64 -0.48,-2.43c-0.14,-0.89 -0.23,-1.69 -0.47,-2.43c-0.29,-0.86 0.08,-1.78 -0.17,-2.66c-0.23,-0.83 -0.07,-1.71 -0.34,-2.54c-0.25,-0.79 -0.45,-1.5 -0.45,-2.41c0,-0.9 0,-1.82 0,-1.09c0,0.86 0,1.76 0,2.67c0,0.9 0,1.81 0,2.67c0,0.9 0,1.81 0,2.67c0,0.9 -0.28,1.81 0.01,2.66c0.25,0.74 0.47,1.53 0.47,2.43c0,0.9 0.47,1.53 0.48,2.43c0,0.9 0.22,1.69 0.47,2.43c0.29,0.85 0.39,1.67 0.48,2.57c0.09,0.87 0.43,1.54 0.68,2.32c0.25,0.77 0.74,1.44 0.75,2.3c0.01,0.88 0.26,1.6 0.48,2.38c0.23,0.8 0.31,1.65 0.56,2.48c0.24,0.82 0.4,1.67 0.4,2.57c0,0.86 0.21,1.65 0.46,2.4c0.28,0.84 -0.04,1.79 0.02,2.7c0.05,0.85 0.48,1.52 0.48,2.43c0,0.9 0.28,1.68 0.48,2.43c0.22,0.88 0.51,1.52 0.75,2.25c0.25,0.78 0.61,1.49 1.14,2.09c0.58,0.66 1.34,0.94 2.06,1.23c0.77,0.3 1.52,0.48 2.43,0.48c0.9,0 1.66,0.34 2.43,0.48c0.89,0.16 1.83,0.08 2.59,-0.17c0.76,-0.24 1.38,-0.86 1.92,-1.46c0.54,-0.61 1.05,-1.27 1.45,-1.93c0.43,-0.72 0.95,-1.38 1.5,-2.07c0.5,-0.64 0.97,-1.24 1.45,-1.93c0.45,-0.63 0.48,-1.52 0.86,-2.19c0.38,-0.68 0.71,-1.44 0.94,-2.2c0.26,-0.87 0.27,-1.69 0.48,-2.43c0.24,-0.87 0,-1.81 0,-2.67c0,-0.9 -0.26,-1.64 -0.56,-2.48c-0.28,-0.8 -0.84,-1.61 -1.6,-1.89c-0.83,-0.31 -1.56,-0.24 -2.4,-0.5c-0.78,-0.25 -1.57,-0.69 -2.44,-0.46c-0.78,0.21 -1.31,0.93 -1.77,1.62c-0.49,0.74 -0.79,1.46 -1.02,2.2c-0.25,0.78 -0.2,1.7 -0.2,2.61c0,0.86 0.07,1.71 0.47,2.39c0.4,0.69 0.59,1.52 0.97,2.32c0.33,0.71 0.89,1.35 1.42,1.96c0.56,0.63 0.85,1.38 1.45,1.93c0.58,0.55 1.07,1.03 1.62,1.62c0.55,0.59 1.44,0.62 2.13,1.1c0.64,0.45 1.36,0.61 2.23,0.83c0.89,0.23 1.67,0.46 2.57,0.46c0.86,0 1.49,-0.53 2.15,-0.94c0.67,-0.42 1.37,-0.92 1.96,-1.46c0.62,-0.57 0.81,-1.38 1.12,-2.12l0,-0.9l0,-0.86l-0.49,-0.65" fill="none" id="svg_27" stroke="#000000" stroke-width="4"/>
  <path d="m401.88,186.83c0.89,-0.58 1.56,-0.97 2.21,-1.45c0.63,-0.47 1.29,-0.91 2.07,-1.16c0.76,-0.25 1.55,-0.45 2.29,-0.71c0.86,-0.3 1.57,-0.48 2.47,-0.48c0.86,0 1.76,0 2.62,0c0.9,0 1.81,0 2.71,0c0.9,0 1.64,-0.24 2.52,-0.47c0.88,-0.22 1.84,0.13 2.67,-0.12c0.81,-0.24 1.58,-0.46 2.33,-0.93c0.7,-0.44 1.26,-0.9 1.51,-1.75l0.4,-0.65l0,-0.9" fill="none" id="svg_28" stroke="#000000" stroke-width="4" transform="matrix(1 0 0 1 0 0)"/>
  <ellipse cx="435.2" cy="193.25" fill="none" id="svg_29" rx="1.19" ry="1.19" stroke="#000000" stroke-width="2"/>
  <ellipse cx="427.58" cy="194.2" fill="none" id="svg_30" rx="1.19" ry="1.19" stroke="#000000" stroke-width="2"/>
  <line fill="none" id="svg_33" stroke="#000000" stroke-width="4" x1="265.28" x2="305.26" y1="353.89" y2="344.85"/>
  <path d="m403.31,303.91c0,0 -15.71,-16.66 -28.25,-12.62c-0.17,-0.25 -17.92,9.77 -10,27.61c4.59,19.27 51.58,42.13 57.12,40.93c6.97,0.23 20.16,-47.35 21.42,-64.26c-2.08,-18.33 -17.44,-24.5 -29.99,-15.23c-11.59,11.18 -3.16,23.57 -10.3,23.57z" fill="#e05c5c" id="svg_35" stroke="#000000" stroke-width="4" transform="rotate(6.20516 403.314 317.974)"/>
 </g>
</svg>